<?xml version="1.0" standalone="no"?>
<svg xmlns="http://www.w3.org/2000/svg" viewBox="0 0 186.888 29" width="186.888" height="29"><g fill="#305699" color="#305699" transform="translate(0, 0) scale(0.29)"><svg width="100.0" height="100.0" x="0.0" y="0.0" viewBox="0 0 100 100"><path fill="currentColor" d="M99.04,20.58c-0.01-0.06-0.01-0.12-0.03-0.18c-0.02-0.05-0.06-0.09-0.09-0.13c-0.03-0.05-0.06-0.1-0.1-0.14  s-0.09-0.07-0.141-0.1c-0.04-0.03-0.08-0.06-0.13-0.08c-0.05-0.03-0.109-0.03-0.17-0.04c-0.05-0.01-0.1-0.03-0.16-0.03l-6.21-0.04  l-0.81-1.22c0-0.01-0.01-0.01-0.01-0.02c-0.021-0.02-0.04-0.04-0.061-0.06c-0.03-0.04-0.07-0.07-0.11-0.1  c-0.02-0.02-0.039-0.05-0.069-0.07c-0.021-0.01-0.05-0.02-0.07-0.03c-0.04-0.02-0.09-0.04-0.14-0.05  c-0.03-0.01-0.07-0.03-0.101-0.04c-0.01,0-0.01,0-0.02-0.01C71.93,15.31,56.3,16.39,50.8,21c-0.44,0.37-0.8,0.75-1.09,1.15  c-0.3-0.42-0.67-0.83-1.13-1.21c-4.3-3.61-16.89-6.21-39.3-2.7c-0.01,0.01-0.01,0.01-0.02,0.01c-0.03,0.01-0.06,0.03-0.1,0.04  c-0.05,0.01-0.09,0.03-0.14,0.05C9,18.35,8.97,18.36,8.95,18.37c-0.02,0.02-0.04,0.05-0.07,0.07c-0.04,0.03-0.08,0.06-0.11,0.1  L8.71,18.6c0,0.01-0.01,0.01-0.01,0.02l-0.81,1.22l-6.2,0.04c-0.06,0-0.11,0.02-0.16,0.03c-0.06,0.01-0.12,0.01-0.17,0.04  C1.31,19.96,1.28,20,1.24,20.03c-0.06,0.03-0.11,0.06-0.16,0.1C1.05,20.16,1.03,20.21,1,20.25c-0.03,0.05-0.07,0.09-0.1,0.15  c-0.02,0.05-0.02,0.11-0.03,0.16c-0.01,0.06-0.03,0.11-0.03,0.17v61.31c0,0.06,0.02,0.1,0.03,0.15C0.88,82.25,0.88,82.3,0.9,82.35  c0.02,0.061,0.05,0.101,0.08,0.15c0.03,0.04,0.06,0.09,0.09,0.13c0.04,0.04,0.09,0.07,0.13,0.101c0.05,0.029,0.09,0.069,0.14,0.09  c0.05,0.02,0.11,0.029,0.16,0.04c0.05,0.01,0.09,0.04,0.15,0.04c10.33,0.55,19.34-0.78,26.58-1.851c6.4-0.95,11.46-1.7,13.12-0.26  c0.28,0.24,0.65,0.68,0.65,1.76c0,0.47,0.38,0.851,0.86,0.851h14.19c0.47,0,0.851-0.381,0.851-0.851c0-1.069,0.369-1.52,0.649-1.76  c1.67-1.44,6.73-0.69,13.13,0.26c7.24,1.07,16.25,2.4,26.58,1.851c0.061,0,0.101-0.03,0.15-0.04c0.05-0.011,0.109-0.021,0.16-0.04  c0.05-0.021,0.1-0.061,0.14-0.101c0.04-0.029,0.09-0.05,0.12-0.09c0.05-0.04,0.07-0.09,0.1-0.14c0.03-0.05,0.061-0.09,0.08-0.13  c0.021-0.061,0.03-0.12,0.03-0.181c0.01-0.04,0.03-0.09,0.03-0.14V20.73C99.07,20.68,99.05,20.63,99.04,20.58z M91.32,21.91l1.989,3  v48.82l-2.34-3.36L91.32,21.91z M92.59,75.7c-7.229,0.43-12.54-0.38-17.24-1.101C67.7,73.41,61.65,72.48,52.13,78.03h-1.22  c0.3-1.49,1.32-3.021,2.92-4.32c3.58-2.91,12.99-7.05,35.78-2.3L92.59,75.7z M50.56,24.63c0-0.01,0-0.01,0-0.02  c0.021-0.79,0.471-1.56,1.341-2.29c4.159-3.49,17.42-5.58,37.72-2.49L89.27,69.59c-22.979-4.66-32.739-0.28-36.52,2.79  c-0.77,0.62-1.42,1.3-1.95,2.01l-0.24-49.74C50.56,24.64,50.56,24.64,50.56,24.63z M47.48,22.25c0.89,0.75,1.35,1.54,1.37,2.36v0.05  l0.23,49.68c-0.53-0.689-1.16-1.35-1.91-1.96c-3.78-3.07-13.54-7.45-36.53-2.79l-0.36-49.76C31.68,16.57,43.69,19.08,47.48,22.25z   M10.3,71.41c22.79-4.76,32.21-0.61,35.79,2.3c1.61,1.3,2.63,2.83,2.92,4.32h-1.24c-9.51-5.55-15.56-4.62-23.21-3.431  c-4.7,0.721-10.01,1.53-17.24,1.101L10.3,71.41z M8.58,21.91l0.36,48.46L6.6,73.73V24.91L8.58,21.91z"></path></svg></g><line x1="41" y1="1" x2="41" y2="28" stroke="#0b005d" stroke-linecap="round"></line><path fill="#0b005d" fill-rule="nonzero" d="M6.31 0.17Q9.12 0.17 10.44 1.48Q11.76 2.78 11.76 4.82L11.76 4.82Q11.76 6.26 11.14 7.52Q10.51 8.78 9.28 9.58Q8.04 10.37 6.31 10.37L6.31 10.37Q5.30 10.37 4.63 10.10L4.63 10.10Q4.58 9.82 4.58 9.65L4.58 9.65Q4.58 9.36 4.66 9.12L4.66 9.12Q5.26 9.26 5.93 9.26L5.93 9.26Q9.31 9.26 9.31 5.52L9.31 5.52Q9.31 3.50 8.33 2.36Q7.34 1.22 5.26 1.22L5.26 1.22Q4.73 1.22 4.03 1.37L4.03 1.37L4.03 12.91Q4.03 13.94 4.25 14.48Q4.46 15.02 4.91 15.23Q5.35 15.43 6.17 15.48L6.17 15.48Q6.29 15.82 6.29 16.51L6.29 16.51Q5.18 16.44 3.26 16.44L3.26 16.44Q0.94 16.44 0 16.51L0 16.51Q0 15.82 0.12 15.48L0.12 15.48Q1.08 15.43 1.43 15.01Q1.78 14.59 1.78 13.39L1.78 13.39L1.78 3.26Q1.78 2.06 1.43 1.64Q1.08 1.22 0.12 1.18L0.12 1.18Q0 0.84 0 0.14L0 0.14Q1.25 0.22 3.26 0.22L3.26 0.22L6.31 0.17ZM20.23 15.36Q21.36 15.36 22.02 15.13Q22.68 14.90 23.08 14.41Q23.47 13.92 23.83 13.03L23.83 13.03Q24.48 13.15 24.89 13.56L24.89 13.56Q24.46 14.69 24.24 16.46L24.24 16.46L19.99 16.44Q16.54 16.44 14.42 16.49L14.42 16.49Q14.42 15.74 14.54 15.41L14.54 15.41Q15.12 15.36 15.43 15.22Q15.74 15.07 15.88 14.69Q16.01 14.30 16.01 13.54L16.01 13.54L16.01 7.22Q16.01 6.53 15.88 6.17Q15.74 5.81 15.44 5.66Q15.14 5.52 14.54 5.47L14.54 5.47Q14.45 5.09 14.45 4.39L14.45 4.39Q16.18 4.44 17.11 4.44L17.11 4.44Q18.10 4.44 19.78 4.39L19.78 4.39Q19.78 5.11 19.66 5.47L19.66 5.47Q18.82 5.52 18.52 5.87Q18.22 6.22 18.22 7.25L18.22 7.25L18.22 13.49Q18.22 14.26 18.36 14.65Q18.50 15.05 18.90 15.20Q19.30 15.36 20.09 15.36L20.09 15.36L20.23 15.36ZM33.94 16.61Q31.97 16.61 30.83 16.14Q29.69 15.67 29.20 14.72Q28.70 13.78 28.70 12.26L28.70 12.26L28.70 7.27Q28.70 6.53 28.61 6.17Q28.51 5.81 28.26 5.68Q28.01 5.54 27.46 5.47L27.46 5.47Q27.34 5.09 27.34 4.39L27.34 4.39Q28.49 4.44 29.83 4.44L29.83 4.44Q31.18 4.44 32.47 4.39L32.47 4.39Q32.47 5.02 32.38 5.47L32.38 5.47Q31.70 5.54 31.42 5.68Q31.13 5.81 31.02 6.16Q30.91 6.50 30.91 7.27L30.91 7.27L30.91 11.98Q30.91 13.68 31.69 14.54Q32.47 15.41 34.39 15.41L34.39 15.41Q34.97 15.41 35.57 15.23Q36.17 15.05 36.60 14.69L36.60 14.69Q37.06 14.28 37.26 13.60Q37.46 12.91 37.46 11.57L37.46 11.57L37.46 7.80Q37.46 6.89 37.36 6.42Q37.25 5.95 36.94 5.75Q36.62 5.54 36 5.47L36 5.47Q35.90 4.90 35.90 4.39L35.90 4.39Q36.86 4.44 37.92 4.44L37.92 4.44Q38.86 4.44 39.96 4.39L39.96 4.39Q39.96 4.99 39.84 5.47L39.84 5.47Q39.10 5.54 38.84 6.00Q38.59 6.46 38.59 7.70L38.59 7.70L38.59 11.59Q38.59 13.20 38.34 14.12Q38.09 15.05 37.37 15.62L37.37 15.62Q36.17 16.61 33.94 16.61L33.94 16.61ZM60.58 15.48Q60.70 15.86 60.70 16.49L60.70 16.49Q59.40 16.44 58.01 16.44L58.01 16.44Q56.76 16.44 55.37 16.49L55.37 16.49Q55.37 16.01 55.49 15.48L55.49 15.48Q56.28 15.41 56.57 15.18Q56.86 14.95 56.86 14.30L56.86 14.30Q56.86 14.14 56.76 13.27L56.76 13.27L56.02 7.56L51.74 16.13Q51.36 16.27 50.81 16.27L50.81 16.27L46.37 7.61L45.70 12.67Q45.62 13.32 45.62 13.78L45.62 13.78Q45.62 14.71 45.95 15.07Q46.27 15.43 47.06 15.48L47.06 15.48Q47.18 15.86 47.18 16.49L47.18 16.49Q45.89 16.44 44.90 16.44L44.90 16.44Q43.85 16.44 42.74 16.49L42.74 16.49Q42.74 15.86 42.86 15.48L42.86 15.48Q43.44 15.43 43.76 15.19Q44.09 14.95 44.27 14.36Q44.45 13.78 44.57 12.62L44.57 12.62L45.24 7.34Q45.26 7.18 45.26 6.86L45.26 6.86Q45.26 6.05 44.94 5.76Q44.62 5.47 43.82 5.47L43.82 5.47Q43.70 5.04 43.70 4.39L43.70 4.39Q44.62 4.44 45.46 4.44L45.46 4.44Q46.13 4.44 47.18 4.39L47.18 4.39L51.86 13.39L56.30 4.39Q57.36 4.44 58.10 4.44L58.10 4.44Q58.68 4.44 59.83 4.39L59.83 4.39Q59.83 5.09 59.71 5.47L59.71 5.47Q58.99 5.47 58.63 5.80Q58.27 6.12 58.27 6.89L58.27 6.89Q58.27 7.20 58.30 7.39L58.30 7.39L59.04 13.06Q59.18 14.09 59.34 14.57Q59.50 15.05 59.77 15.24Q60.05 15.43 60.58 15.48L60.58 15.48ZM73.63 13.03Q74.28 13.15 74.69 13.56L74.69 13.56Q74.26 14.69 74.04 16.46L74.04 16.46L69.41 16.44Q65.95 16.44 63.84 16.49L63.84 16.49Q63.84 15.74 63.96 15.41L63.96 15.41Q64.56 15.36 64.86 15.22Q65.16 15.07 65.28 14.69Q65.40 14.30 65.40 13.54L65.40 13.54L65.40 7.22Q65.40 6.53 65.27 6.17Q65.14 5.81 64.84 5.66Q64.54 5.52 63.96 5.47L63.96 5.47Q63.84 5.11 63.84 4.39L63.84 4.39Q65.57 4.44 67.61 4.44L67.61 4.44Q72.02 4.44 73.51 4.39L73.51 4.39Q73.78 6.65 73.97 7.37L73.97 7.37Q73.56 7.63 72.89 7.63L72.89 7.63Q72.79 6.62 72.06 6.05Q71.33 5.47 69.48 5.47L69.48 5.47L67.61 5.47L67.61 9.89L68.81 9.89Q70.08 9.89 70.57 9.60Q71.06 9.31 71.09 8.54L71.09 8.54Q71.62 8.38 72.19 8.38L72.19 8.38Q72.14 8.98 72.14 10.39L72.14 10.39Q72.14 11.93 72.19 12.48L72.19 12.48Q71.54 12.48 71.14 12.34L71.14 12.34Q71.06 11.54 70.57 11.26Q70.08 10.97 68.81 10.97L68.81 10.97L67.61 10.97L67.61 13.49Q67.61 14.26 67.76 14.65Q67.92 15.05 68.32 15.20Q68.71 15.36 69.50 15.36L69.50 15.36L69.65 15.36Q71.04 15.36 71.80 15.12Q72.55 14.88 72.92 14.41Q73.30 13.94 73.63 13.03L73.63 13.03ZM82.66 16.66Q81.26 16.66 80.16 16.28Q79.06 15.91 77.78 15.12L77.78 15.12Q78 13.78 78 11.71L78 11.71Q78.55 11.57 79.30 11.57L79.30 11.57Q79.39 13.49 80.27 14.50Q81.14 15.50 82.99 15.50L82.99 15.50Q84.55 15.50 85.31 14.82Q86.06 14.14 86.06 13.01L86.06 13.01Q86.06 12.07 85.58 11.42Q85.10 10.78 84.41 10.36Q83.71 9.94 82.46 9.36L82.46 9.36Q81.02 8.66 80.16 8.11Q79.30 7.56 78.68 6.64Q78.07 5.71 78.07 4.32L78.07 4.32Q78.07 2.30 79.37 1.15Q80.66 0 82.90 0L82.90 0Q84.07 0 85.15 0.30Q86.23 0.60 86.90 1.06L86.90 1.06Q86.90 3.19 87.05 4.22L87.05 4.22Q86.52 4.44 85.70 4.44L85.70 4.44Q85.37 2.47 84.70 1.76Q84.02 1.06 82.87 1.06L82.87 1.06Q81.60 1.06 80.88 1.68Q80.16 2.30 80.16 3.43L80.16 3.43Q80.16 4.37 80.65 5.04Q81.14 5.71 81.85 6.14Q82.56 6.58 83.81 7.20L83.81 7.20Q85.22 7.87 86.08 8.42Q86.93 8.98 87.53 9.86Q88.13 10.75 88.13 12.05L88.13 12.05Q88.13 13.30 87.54 14.34Q86.95 15.38 85.72 16.02Q84.48 16.66 82.66 16.66L82.66 16.66ZM103.42 13.70Q103.42 14.74 103.72 15.08Q104.02 15.43 104.86 15.48L104.86 15.48Q104.98 15.77 104.98 16.49L104.98 16.49Q103.34 16.44 102.34 16.44L102.34 16.44Q101.14 16.44 99.65 16.49L99.65 16.49Q99.65 15.77 99.77 15.48L99.77 15.48Q100.61 15.43 100.91 15.08Q101.21 14.74 101.21 13.70L101.21 13.70L101.21 10.78Q96.60 10.78 94.99 10.90L94.99 10.90L94.99 13.70Q94.99 14.74 95.29 15.08Q95.59 15.43 96.46 15.48L96.46 15.48Q96.55 15.79 96.55 16.49L96.55 16.49Q94.92 16.44 93.91 16.44L93.91 16.44Q92.71 16.44 91.22 16.49L91.22 16.49Q91.22 15.77 91.34 15.48L91.34 15.48Q91.94 15.43 92.24 15.29Q92.54 15.14 92.66 14.78Q92.78 14.42 92.78 13.70L92.78 13.70L92.78 7.15Q92.78 6.46 92.66 6.10Q92.54 5.74 92.24 5.59Q91.94 5.45 91.34 5.40L91.34 5.40Q91.22 5.06 91.22 4.39L91.22 4.39Q92.76 4.44 93.91 4.44L93.91 4.44Q94.87 4.44 96.55 4.39L96.55 4.39Q96.55 5.09 96.46 5.40L96.46 5.40Q95.59 5.45 95.29 5.78Q94.99 6.12 94.99 7.15L94.99 7.15L94.99 9.72L101.21 9.72L101.21 7.15Q101.21 6.46 101.08 6.10Q100.94 5.74 100.64 5.59Q100.34 5.45 99.74 5.40L99.74 5.40Q99.65 5.04 99.65 4.39L99.65 4.39Q101.18 4.44 102.31 4.44L102.31 4.44Q103.30 4.44 104.98 4.39L104.98 4.39Q104.98 5.02 104.86 5.40L104.86 5.40Q103.99 5.45 103.70 5.78Q103.42 6.12 103.42 7.15L103.42 7.15L103.42 13.70ZM115.10 16.66Q113.04 16.66 111.46 15.89Q109.87 15.12 109.00 13.73Q108.12 12.34 108.12 10.49L108.12 10.49Q108.12 8.66 109.00 7.25Q109.87 5.83 111.47 5.05Q113.06 4.27 115.15 4.27L115.15 4.27Q117.22 4.27 118.80 5.04Q120.38 5.81 121.26 7.21Q122.14 8.62 122.14 10.44L122.14 10.44Q122.14 12.29 121.26 13.69Q120.38 15.10 118.79 15.88Q117.19 16.66 115.10 16.66L115.10 16.66ZM115.44 15.55Q117.38 15.55 118.52 14.26Q119.66 12.96 119.66 10.80L119.66 10.80Q119.66 9.24 119.04 8.00Q118.42 6.77 117.30 6.07Q116.18 5.38 114.79 5.38L114.79 5.38Q112.85 5.38 111.72 6.68Q110.59 7.99 110.59 10.13L110.59 10.13Q110.59 11.74 111.22 12.97Q111.84 14.21 112.94 14.88Q114.05 15.55 115.44 15.55L115.44 15.55ZM130.68 11.16Q131.95 11.16 132.76 10.54Q133.56 9.91 133.56 8.47L133.56 8.47Q133.56 7.10 132.71 6.30Q131.86 5.50 130.10 5.50L130.10 5.50Q129.65 5.50 129.05 5.64L129.05 5.64L129.05 13.37Q129.05 14.50 129.48 14.93Q129.91 15.36 130.97 15.41L130.97 15.41Q131.09 15.77 131.09 16.49L131.09 16.49Q129.74 16.44 128.30 16.44L128.30 16.44Q126.48 16.44 125.28 16.49L125.28 16.49Q125.28 15.74 125.40 15.41L125.40 15.41Q126.24 15.36 126.54 15.01Q126.84 14.66 126.84 13.63L126.84 13.63L126.84 7.22Q126.84 6.53 126.72 6.17Q126.60 5.81 126.30 5.66Q126.00 5.52 125.40 5.47L125.40 5.47Q125.28 5.11 125.28 4.39L125.28 4.39Q127.54 4.44 128.23 4.44L128.23 4.44L131.11 4.39Q133.58 4.39 134.74 5.42Q135.89 6.46 135.89 8.06L135.89 8.06Q135.89 9.22 135.34 10.18Q134.78 11.14 133.69 11.71Q132.60 12.29 131.06 12.29L131.06 12.29Q130.13 12.29 129.60 12.12L129.60 12.12Q129.55 11.78 129.55 11.62L129.55 11.62Q129.55 11.30 129.62 11.09L129.62 11.09Q129.98 11.16 130.68 11.16L130.68 11.16Z" transform="translate(51, 6.28)"></path></svg>